<svg width="467" height="463" viewBox="0 0 467 463" fill="none" xmlns="http://www.w3.org/2000/svg">
<path fill-rule="evenodd" clip-rule="evenodd" d="M422.501 3.52387C387.629 6.95487 374.001 8.81987 374.001 10.1599C374.001 11.2619 379.27 12.4919 399.001 15.9949C408.626 17.7039 418.301 19.4309 420.501 19.8329L424.501 20.5639L416.001 25.3349C411.326 27.9589 406.151 30.9059 404.501 31.8849C399.722 34.7209 385.206 42.9739 376.501 47.8039C372.101 50.2449 368.276 52.5489 368.001 52.9219C367.726 53.2959 365.202 54.7879 362.392 56.2369C359.581 57.6859 355.531 59.9189 353.392 61.1979C351.252 62.4769 348.151 64.3299 346.501 65.3169C342.768 67.5489 329.924 74.9099 320.001 80.5039C315.876 82.8289 307.776 87.4609 302.001 90.7959C296.226 94.1309 287.724 98.9739 283.108 101.56C278.492 104.145 272.802 107.552 270.463 109.13C268.124 110.709 265.891 112 265.5 112C265.109 112 259.999 114.831 254.145 118.292C248.291 121.753 241.476 125.645 239.001 126.941C236.526 128.237 233.826 129.855 233.001 130.537C232.176 131.219 227.676 133.887 223.001 136.467C218.326 139.047 210.001 143.792 204.501 147.012C199.001 150.232 191.801 154.308 188.501 156.069C185.201 157.83 180.153 160.769 177.284 162.602C174.415 164.434 169.69 167.123 166.784 168.578C163.878 170.033 160.151 172.231 158.501 173.463C156.851 174.695 152.126 177.422 148.001 179.524C143.876 181.625 139.158 184.28 137.517 185.422C134.703 187.382 125.083 192.924 108.001 202.427C103.876 204.722 98.6838 207.759 96.4638 209.178C94.2438 210.596 89.6828 213.141 86.3288 214.834C82.9748 216.527 79.6138 218.495 78.8598 219.206C78.1058 219.918 74.1168 222.253 69.9948 224.395C65.8728 226.538 61.1508 229.264 59.5008 230.453C57.8508 231.642 54.0258 233.883 51.0008 235.434C47.9758 236.986 41.6758 240.521 37.0008 243.29C15.8308 255.832 12.2278 257.909 8.00081 260.003C-0.470189 264.201 0.000810754 262.568 0.000810754 287.725V310.139L10.5348 315.108C16.3278 317.841 21.5028 319.808 22.0348 319.479C22.5658 319.151 23.0018 314.071 23.0038 308.191L23.0068 297.5L31.2538 292.858C38.4938 288.783 49.7918 282.286 88.0008 260.225C98.1098 254.388 114.304 245.124 125.001 239.058C128.576 237.031 137.576 231.832 145.001 227.504C152.426 223.176 162.101 217.645 166.501 215.212C170.901 212.779 175.211 210.161 176.08 209.394C176.948 208.627 177.904 208 178.204 208C178.655 208 217.869 185.637 262.001 160.212C267.226 157.202 276.001 152.173 281.501 149.036C287.001 145.898 295.891 140.786 301.256 137.675C327.754 122.312 331.84 119.961 358.001 105.036C370.243 98.0509 411.495 74.2639 420.501 68.9959C425.451 66.1009 433.101 61.7099 437.501 59.2379C453.78 50.0949 460.302 43.9539 464.15 34.1469C467.131 26.5509 467.254 12.7809 464.406 5.49987C462.702 1.14287 462.068 0.478867 459.476 0.339867C457.84 0.250867 441.201 1.68487 422.501 3.52387ZM210.001 25.6549C206.426 27.6309 202.826 29.7959 202.001 30.4669C201.176 31.1379 196.538 33.8949 191.694 36.5939C186.851 39.2919 180.551 42.8039 177.694 44.3979C174.838 45.9919 168.605 49.5919 163.843 52.3979C159.082 55.2039 153.007 58.7429 150.343 60.2619C147.68 61.7809 144.151 63.8399 142.501 64.8359C140.851 65.8329 136.351 68.3649 132.501 70.4629C128.651 72.5609 125.276 74.5789 125.001 74.9479C124.726 75.3159 120.676 77.6719 116.001 80.1829C111.326 82.6949 105.926 85.7469 104.001 86.9649C100.616 89.1079 93.2368 93.3429 76.5008 102.747C72.1008 105.22 68.2758 107.559 68.0008 107.946C67.7258 108.333 63.2258 111.014 58.0008 113.903C40.3998 123.637 30.2638 129.492 28.6278 130.872C27.1618 132.109 27.0008 137.633 27.0008 186.622C27.0008 237.746 27.1058 241 28.7508 240.995C31.0028 240.989 40.5148 236.029 55.0008 227.307L66.5008 220.383L67.0278 155.117L69.7648 153.221C71.2698 152.178 75.8758 149.424 80.0008 147.101C84.1258 144.778 88.8508 142.079 90.5008 141.103C92.1508 140.127 96.8758 137.401 101.001 135.046C115.376 126.837 161.591 100.207 174.001 92.9809C180.876 88.9779 189.876 83.7879 194.001 81.4469C198.126 79.1069 205.101 75.1089 209.501 72.5639C215.188 69.2749 218.178 68.1029 219.842 68.5099C221.129 68.8259 226.529 71.6919 231.842 74.8799C246.067 83.4169 274.88 99.9999 275.488 99.9999C275.777 99.9999 280.848 97.2319 286.757 93.8499C292.666 90.4669 300.973 85.7239 305.217 83.3089C309.461 80.8949 313.226 78.4439 313.585 77.8639C314.525 76.3419 312.569 74.7839 303.001 69.4319C286.781 60.3599 276.48 54.4369 272.501 51.8949C270.301 50.4889 265.576 47.8279 262.001 45.9799C258.426 44.1329 254.826 42.0629 254 41.3809C253.175 40.6989 248.9 38.1269 244.5 35.6659C240.101 33.2049 232.912 29.1239 228.525 26.5959C224.139 24.0679 219.639 22.0139 218.525 22.0309C217.412 22.0479 213.576 23.6789 210.001 25.6549ZM433.001 93.0539C407.956 96.2409 393.001 98.8779 393.001 100.107C393.001 101.052 401.599 103.765 414.751 106.97C423.886 109.196 425.74 110.313 422.175 111.445C421.17 111.764 415.573 114.831 409.737 118.262C394.058 127.479 389.612 130.021 380.291 135.092C375.649 137.617 371.098 140.326 370.176 141.111C369.255 141.896 366.251 143.714 363.501 145.15C360.751 146.586 356.251 149.151 353.501 150.85C350.751 152.55 346.251 155.134 343.501 156.594C340.751 158.054 334.451 161.606 329.501 164.488C305.677 178.358 301.252 180.888 298.001 182.503C296.076 183.459 293.826 184.819 293.001 185.525C292.176 186.232 288.069 188.641 283.875 190.881C279.68 193.12 273.84 196.538 270.897 198.476C267.954 200.414 265.209 202 264.797 202C264.385 202 259.551 204.686 254.055 207.968C248.559 211.25 241.91 215.099 239.281 216.52C236.652 217.942 230.001 221.743 224.501 224.967C219.001 228.191 210.451 233.138 205.501 235.959C200.551 238.78 195.151 241.895 193.501 242.88C187.847 246.256 175.499 253.289 166.723 258.131C161.894 260.795 157.394 263.463 156.723 264.061C156.051 264.659 151.451 267.394 146.501 270.14C141.551 272.886 133.438 277.465 128.472 280.316C123.506 283.167 117.05 286.85 114.126 288.5C111.202 290.15 105.14 293.688 100.655 296.361C96.1698 299.035 89.9648 302.503 86.8658 304.068C83.7668 305.632 80.6138 307.495 79.8598 308.206C79.1058 308.918 75.1168 311.258 70.9948 313.406C66.8728 315.555 61.7248 318.592 59.5538 320.156C57.3828 321.72 55.2608 323 54.8378 323C54.4148 323 48.5408 326.218 41.7848 330.151C35.0288 334.084 25.4508 339.658 20.5008 342.537C15.5508 345.416 9.70081 348.713 7.50081 349.863C-0.0901895 353.833 -0.115189 353.878 0.208811 363.127L0.500811 371.471L7.50081 375.766C24.2268 386.028 23.2538 385.754 45.5528 386.459C56.5238 386.806 66.8508 387.287 68.5008 387.528C70.1508 387.77 72.1758 387.509 73.0008 386.949C74.8078 385.723 74.4878 385.45 61.7508 377.356C56.9388 374.297 53.0008 371.455 53.0008 371.04C53.0008 370.625 56.7128 368.141 61.2508 365.52C65.7878 362.899 73.5508 358.392 78.5008 355.503C90.1078 348.73 119.623 331.741 128.001 327.011C131.576 324.993 143.726 318.022 155.001 311.521C166.276 305.019 183.376 295.213 193.001 289.73C202.626 284.247 213.302 278.014 216.726 275.88C220.151 273.746 223.172 272 223.442 272C223.873 272 234.971 265.593 252.001 255.514C255.026 253.723 260.876 250.359 265.001 248.037C279.037 240.139 280.557 239.266 309.501 222.499C326.441 212.685 338.913 205.498 349.205 199.618C363.035 191.717 378.568 182.807 389.501 176.503C394.451 173.649 405.926 167.034 415.001 161.802C424.076 156.571 434.651 150.568 438.501 148.461C448.823 142.814 456.678 136.458 460.519 130.647C464.142 125.165 467.001 115.986 467.001 109.839C467.001 104.979 465.136 96.2409 463.354 92.7499C461.616 89.3459 462.191 89.3399 433.001 93.0539ZM363.073 107.662C360.837 109.229 355.934 112.021 335.775 123.211C331.526 125.57 327.83 128.057 327.561 128.738C327.127 129.838 334.218 134.438 349.501 142.97L353.501 145.203L366.001 137.928C372.876 133.927 381.426 128.986 385.001 126.948C388.576 124.91 391.501 122.678 391.501 121.989C391.501 121.006 371.031 108.232 366.493 106.383C365.939 106.157 364.4 106.732 363.073 107.662ZM405.573 172.716C403.967 173.558 402.169 174.667 401.577 175.18C400.444 176.164 385.498 184.706 375.751 189.941L370.001 193.029V208.514C370.001 220.244 370.304 223.996 371.251 223.985C371.939 223.976 378.351 220.551 385.501 216.374C392.651 212.197 400.526 207.644 403.001 206.256C410.376 202.12 410.001 203.155 410.001 186.937C410.001 178.786 409.662 171.908 409.247 171.652C408.832 171.396 407.179 171.875 405.573 172.716ZM442.501 182.53C415.325 187.877 412.664 188.511 412.254 189.741C412.04 190.382 415.082 192.526 419.012 194.506C424.875 197.458 425.949 198.358 424.99 199.514C424.347 200.289 422.875 201.222 421.72 201.589C420.565 201.956 415.219 204.884 409.841 208.096C404.462 211.308 397.91 215.099 395.281 216.52C392.652 217.942 386.001 221.743 380.501 224.967C375.001 228.191 366.451 233.138 361.501 235.959C356.551 238.78 351.151 241.895 349.501 242.88C343.742 246.319 331.433 253.325 322.501 258.248C317.551 260.976 313.276 263.536 313.001 263.935C312.726 264.335 308.676 266.688 304.001 269.163C299.326 271.639 293.926 274.681 292.001 275.923C288.666 278.075 281.609 282.146 265.001 291.5C250.438 299.702 241.45 304.865 237.001 307.584C234.526 309.096 229.576 311.898 226.001 313.811C222.426 315.724 217.701 318.477 215.501 319.929C213.301 321.382 209.026 323.876 206.001 325.471C202.976 327.067 198.251 329.802 195.501 331.551C192.751 333.299 187.801 336.17 184.501 337.931C181.201 339.692 174.001 343.769 168.501 346.99C163.001 350.211 154.226 355.199 149.001 358.073C143.776 360.948 139.276 363.624 139.001 364.019C138.726 364.414 136.22 365.888 133.431 367.294C130.643 368.7 124.343 372.282 119.431 375.254C114.52 378.226 109.748 380.932 108.827 381.268C107.906 381.604 105.206 383.139 102.827 384.68C98.0418 387.778 84.6818 395.519 72.7508 402.107C68.4888 404.46 65.0008 406.968 65.0008 407.679C65.0008 408.391 68.3988 410.892 72.5508 413.237C76.7038 415.582 83.7728 419.677 88.2608 422.337C103.479 431.357 100.897 430.77 127.024 431.154C141.072 431.361 150.702 431.122 151.001 430.558C151.276 430.04 148.084 427.565 143.907 425.058C139.731 422.551 134.872 419.375 133.109 418L129.905 415.5L138.703 410.379C143.542 407.562 154.026 401.524 162.001 396.962C188.513 381.796 216.388 365.8 225.756 360.377C230.847 357.43 239.397 352.481 244.756 349.379C257.294 342.123 273.357 332.955 283.501 327.265C287.901 324.798 291.951 322.428 292.501 322C293.051 321.572 297.101 319.222 301.501 316.778C305.901 314.333 318.501 307.148 329.501 300.811C340.501 294.473 355.351 285.918 362.501 281.798C369.651 277.679 383.151 269.886 392.501 264.48C418.836 249.255 428.79 243.564 438.001 238.466C449.234 232.249 456.029 226.683 460.408 220.113C465.119 213.044 466.481 208.205 466.492 198.5C466.503 188.648 463.147 178.621 460.001 179.108C459.726 179.151 451.851 180.691 442.501 182.53ZM404.909 262.857C403.573 263.909 399.334 266.441 395.49 268.486C391.646 270.531 386.926 273.246 385.001 274.52C383.076 275.793 379.026 278.155 376.001 279.767L370.501 282.698L369.965 329.705L360.233 335.049C354.881 337.989 349.109 341.43 347.407 342.697C345.705 343.964 343.982 345 343.578 345C343.175 345 337.592 348.09 331.173 351.866C312.728 362.717 299.095 370.565 283.001 379.595C278.326 382.218 272.746 385.633 270.601 387.182C268.456 388.732 266.271 390 265.745 390C265.219 390 259.999 392.854 254.145 396.343C248.291 399.831 241.476 403.816 239.001 405.199C236.526 406.581 230.922 409.783 226.547 412.313L218.593 416.913L213.047 413.801C207.306 410.579 202.62 407.855 187.8 399.125C183.014 396.306 178.583 394 177.954 394C177.325 394 175.503 394.931 173.905 396.068C172.307 397.206 167.513 399.951 163.251 402.168C158.988 404.385 153.208 407.707 150.405 409.551C147.602 411.394 144.114 413.447 142.655 414.112C137.465 416.476 137.486 416.494 164.001 431.748C169.776 435.071 181.251 441.737 189.501 446.562C204.508 455.339 218.044 463 218.543 463C218.689 463 221.44 461.489 224.655 459.643C227.87 457.797 233.876 454.378 238.001 452.045C242.126 449.712 248.426 446.105 252.001 444.03C255.576 441.955 263.001 437.66 268.501 434.485C284.586 425.2 296.355 418.377 306.251 412.601C311.338 409.631 318.876 405.293 323.001 402.961C327.126 400.628 334.776 396.244 340.001 393.218C345.226 390.192 352.44 386.069 356.031 384.055C359.623 382.041 365.248 378.798 368.531 376.848C378.857 370.714 393.251 362.371 400.001 358.608C403.576 356.615 407.293 354.372 408.261 353.624C409.903 352.356 410.004 349.206 409.761 306.965C409.581 275.611 409.168 261.555 408.42 261.306C407.826 261.108 406.246 261.806 404.909 262.857ZM55.8968 284.629C50.7288 287.691 43.8008 291.56 40.5008 293.227C37.2008 294.894 34.2758 296.587 34.0008 296.989C33.7258 297.392 32.0378 298.47 30.2508 299.386L27.0008 301.051V316.026C27.0008 327.973 27.2758 331 28.3588 331C29.9818 331 38.9038 326.398 52.2848 318.66C68.8488 309.081 67.0008 312.058 67.0008 294.944C67.0008 286.79 66.6168 279.88 66.1468 279.59C65.6768 279.3 61.0648 281.567 55.8968 284.629ZM96.5768 350.663C94.9688 351.534 93.1688 352.667 92.5768 353.18C91.3798 354.22 75.3968 363.349 67.2508 367.647C64.3628 369.17 62.0008 370.934 62.0008 371.566C62.0008 372.615 69.5248 377.354 82.5268 384.494L87.5538 387.255L94.0268 384.009C97.5878 382.224 102.976 379.305 106.001 377.522C109.026 375.738 114.763 372.365 118.751 370.025C122.739 367.685 126.001 365.251 126.001 364.616C126.001 363.664 116.148 357.459 112.519 356.126C111.959 355.92 109.175 354.233 106.332 352.376C100.435 348.525 100.504 348.537 96.5768 350.663Z" fill="#0A0097"/>
</svg>
